<svg xmlns="http://www.w3.org/2000/svg" width="1200" height="380" aria-labelledby="title desc" role="img" viewBox="0 0 1200 380"><title id="title">OBS, in Scala.</title><desc id="desc">OBS WebSocket Client. Direct style. Typed control. Built for your next scene. Scala 3, Java 25, Mill, and Ox.</desc><defs><linearGradient id="bg" x2="1" y2="1"><stop stop-color="#0D141D"/><stop offset="1" stop-color="#152A2C"/></linearGradient><pattern id="grid" width="36" height="36" patternUnits="userSpaceOnUse"><path fill="none" stroke="#FFF" stroke-opacity=".035" d="M36 0H0V36"/></pattern></defs><rect width="1200" height="380" fill="url(#bg)" rx="24"/><rect width="1200" height="380" fill="url(#grid)" rx="24"/><rect width="8" height="8" x="56" y="48" fill="#FF826C" rx="4"/><text x="78" y="60" fill="#B2C4C8" font-family="Arial, Helvetica, sans-serif" font-size="14" font-weight="700" letter-spacing="3">OBS WEBSOCKET CLIENT</text><text x="52" y="173" fill="#F3F7F5" font-family="Arial, Helvetica, sans-serif" font-size="80" font-weight="700" letter-spacing="-3">OBS, in Scala.</text><text x="56" y="220" fill="#AFBDC2" font-family="Arial, Helvetica, sans-serif" font-size="23">Direct style. Typed control. Built for your next scene.</text><g fill="#152B2A" stroke="#315248"><rect width="112" height="38" x="56" y="280" rx="19"/><rect width="112" height="38" x="180" y="280" rx="19"/><rect width="84" height="38" x="304" y="280" rx="19"/><rect width="76" height="38" x="400" y="280" rx="19"/></g><g fill="#94EBC9" font-family="Arial, Helvetica, sans-serif" font-size="14" font-weight="700" text-anchor="middle"><text x="112" y="304">SCALA 3</text><text x="236" y="304">JAVA 25</text><text x="346" y="304">MILL</text><text x="438" y="304">OX</text></g><circle cx="955" cy="186" r="124" fill="none" stroke="#2B4847"/><circle cx="955" cy="186" r="92" fill="#101E25" stroke="#3C655B"/><path fill="none" stroke="#70F0BE" stroke-linecap="round" stroke-linejoin="round" stroke-width="11" d="M930 147 891 186 930 225M980 147 1019 186 980 225"/><path fill="none" stroke="#F3F7F5" stroke-linecap="round" stroke-width="10" d="M942 197 968 175"/><circle cx="1058" cy="118" r="9" fill="#FF826C"/><circle cx="831" cy="186" r="5" fill="#70F0BE"/><path stroke="#396258" stroke-dasharray="4 7" stroke-width="2" d="M1079 186H1144M766 186H825"/><text x="955" y="345" fill="#829C9C" font-family="Arial, Helvetica, sans-serif" font-size="12" letter-spacing="3" text-anchor="middle">CONNECT / CONTROL / OBSERVE</text></svg>